<svg width="36" height="36" viewBox="0 0 36 36" fill="none" xmlns="http://www.w3.org/2000/svg">
<rect x="0.5" y="0.5" width="35" height="35" rx="2.5" fill="white"/>
<path d="M21.75 25.5H14.25C13.4216 25.5 12.75 24.8284 12.75 24V14.25H11.25V12.75H14.25V12C14.25 11.1716 14.9216 10.5 15.75 10.5H20.25C21.0784 10.5 21.75 11.1716 21.75 12V12.75H24.75V14.25H23.25V24C23.25 24.8284 22.5784 25.5 21.75 25.5ZM14.25 14.25V24H21.75V14.25H14.25ZM15.75 12V12.75H20.25V12H15.75Z" fill="#EC4424"/>
<rect x="0.5" y="0.5" width="35" height="35" rx="2.5" stroke="#E2E2E2"/>
</svg>
