<svg width="36" height="36" viewBox="0 0 36 36" fill="none" xmlns="http://www.w3.org/2000/svg">
<rect x="0.5" y="0.5" width="35" height="35" rx="2.5" fill="white"/>
<path d="M12.9467 23.7194C12.7597 23.7191 12.5814 23.6403 12.4553 23.5021C12.327 23.3651 12.2632 23.1798 12.28 22.9928L12.4433 21.1968L19.9887 13.6541L22.3467 16.0114L14.8033 23.5534L13.0073 23.7168C12.9867 23.7188 12.966 23.7194 12.9467 23.7194ZM22.8173 15.5401L20.46 13.1828L21.874 11.7688C21.999 11.6436 22.1687 11.5732 22.3457 11.5732C22.5226 11.5732 22.6923 11.6436 22.8173 11.7688L24.2313 13.1828C24.3565 13.3078 24.4269 13.4775 24.4269 13.6544C24.4269 13.8314 24.3565 14.0011 24.2313 14.1261L22.818 15.5394L22.8173 15.5401Z" fill="#3F3F40"/>
<rect x="0.5" y="0.5" width="35" height="35" rx="2.5" stroke="#E2E2E2"/>
</svg>
