<svg width="16" height="14" viewBox="0 0 16 14" fill="none" xmlns="http://www.w3.org/2000/svg">
<path d="M7.25 3.25C7.25 4.90685 5.90685 6.25 4.25 6.25C2.59315 6.25 1.25 4.90685 1.25 3.25C1.25 1.59315 2.59315 0.25 4.25 0.25C5.90685 0.25 7.25 1.59315 7.25 3.25ZM5.75 3.25C5.75 2.42157 5.07843 1.75 4.25 1.75C3.42157 1.75 2.75 2.42157 2.75 3.25C2.75 4.07843 3.42157 4.75 4.25 4.75C5.07843 4.75 5.75 4.07843 5.75 3.25Z" fill="#5E66FA"/>
<path d="M14.75 6.625C14.75 8.07475 13.5747 9.25 12.125 9.25C10.6753 9.25 9.5 8.07475 9.5 6.625C9.5 5.17525 10.6753 4 12.125 4C13.5747 4 14.75 5.17525 14.75 6.625ZM13.25 6.625C13.25 6.00368 12.7463 5.5 12.125 5.5C11.5037 5.5 11 6.00368 11 6.625C11 7.24632 11.5037 7.75 12.125 7.75C12.7463 7.75 13.25 7.24632 13.25 6.625Z" fill="#5E66FA"/>
<path d="M6.5 13.75V10.75C6.5 9.50736 5.49264 8.5 4.25 8.5C3.00736 8.5 2 9.50736 2 10.75V13.75H0.5V10.75C0.5 8.67893 2.17893 7 4.25 7C6.32107 7 8 8.67893 8 10.75V13.75H6.5Z" fill="#5E66FA"/>
<path d="M14 13.375V13.75H15.5V13.375C15.5 11.511 13.989 10 12.125 10C10.261 10 8.75 11.511 8.75 13.375V13.75H10.25V13.375C10.25 12.3395 11.0895 11.5 12.125 11.5C13.1605 11.5 14 12.3395 14 13.375Z" fill="#5E66FA"/>
</svg>
