<svg width="12" height="15" viewBox="0 0 12 15" fill="none" xmlns="http://www.w3.org/2000/svg">
<path d="M2.25 4C2.25 1.92893 3.92893 0.25 6 0.25C8.07107 0.25 9.75 1.92893 9.75 4C9.75 6.07107 8.07107 7.75 6 7.75C3.92893 7.75 2.25 6.07107 2.25 4ZM6 6.25C7.24264 6.25 8.25 5.24264 8.25 4C8.25 2.75736 7.24264 1.75 6 1.75C4.75736 1.75 3.75 2.75736 3.75 4C3.75 5.24264 4.75736 6.25 6 6.25Z" fill="#5E66FA"/>
<path d="M1.75736 10.2574C0.632141 11.3826 0 12.9087 0 14.5H1.5C1.5 13.3065 1.97411 12.1619 2.81802 11.318C3.66193 10.4741 4.80653 10 6 10C7.19347 10 8.33807 10.4741 9.18198 11.318C10.0259 12.1619 10.5 13.3065 10.5 14.5H12C12 12.9087 11.3679 11.3826 10.2426 10.2574C9.11742 9.13214 7.5913 8.5 6 8.5C4.4087 8.5 2.88258 9.13214 1.75736 10.2574Z" fill="#5E66FA"/>
</svg>
