<svg width="36" height="36" viewBox="0 0 36 36" fill="none" xmlns="http://www.w3.org/2000/svg">
<rect x="0.5" y="0.5" width="35" height="35" rx="2.5" fill="white"/>
<path d="M18 23.2499C16.7699 23.2652 15.5525 22.9997 14.4405 22.4736C13.5785 22.0531 12.8045 21.4722 12.1597 20.7621C11.4768 20.028 10.9391 19.1711 10.575 18.2369L10.5 17.9999L10.5787 17.7629C10.9431 16.8295 11.4797 15.9728 12.1605 15.2376C12.805 14.5276 13.5788 13.9468 14.4405 13.5261C15.5525 13.0001 16.7699 12.7346 18 12.7499C19.2301 12.7346 20.4475 13.0001 21.5595 13.5261C22.4215 13.9467 23.1955 14.5275 23.8403 15.2376C24.5245 15.9708 25.0624 16.8279 25.425 17.7629L25.5 17.9999L25.4213 18.2369C24.2447 21.2997 21.2806 23.3019 18 23.2499ZM18 14.2499C15.4469 14.1699 13.1036 15.6562 12.0878 17.9999C13.1034 20.3437 15.4468 21.8301 18 21.7499C20.553 21.8297 22.8963 20.3434 23.9122 17.9999C22.8978 15.6551 20.5536 14.1682 18 14.2499ZM18 20.2499C16.918 20.2571 15.982 19.4979 15.7657 18.4377C15.5494 17.3775 16.1132 16.3124 17.1115 15.8951C18.1099 15.4779 19.2639 15.825 19.8664 16.7238C20.4689 17.6226 20.3515 18.822 19.5863 19.5869C19.1672 20.0108 18.5961 20.2496 18 20.2499Z" fill="#3F3F40"/>
<rect x="0.5" y="0.5" width="35" height="35" rx="2.5" stroke="#E2E2E2"/>
</svg>
