<svg width="20" height="20" viewBox="0 0 24 21" fill="none" xmlns="http://www.w3.org/2000/svg">
<path fill-rule="evenodd" clip-rule="evenodd" d="M0 1.11182C0 0.766638 0.279822 0.486816 0.625 0.486816L3.88508 0.486829C4.18714 0.486829 4.44597 0.702844 4.5 1.00003L5.14661 4.37502H23.3851C23.5704 4.37502 23.7462 4.45727 23.8649 4.59955C23.9837 4.74184 24.0332 4.92948 24 5.11182L22.2986 14.4696C22.0716 15.7178 20.9846 16.625 19.7159 16.625H8.29415C7.02553 16.625 5.93843 15.7178 5.71149 14.4696L3.36347 1.73683L0.625 1.73682C0.279822 1.73682 0 1.45699 0 1.11182ZM6.94133 14.246C7.0602 14.8998 7.62963 15.375 8.29415 15.375H19.7159C20.3804 15.375 20.9499 14.8998 21.0687 14.246L22.6362 5.62502H5.37388L6.94133 14.246Z" fill="#5E66FA"/>
<path d="M10.625 19.5C10.625 20.3284 9.95343 21 9.125 21C8.29657 21 7.625 20.3284 7.625 19.5C7.625 18.6716 8.29657 18 9.125 18C9.95343 18 10.625 18.6716 10.625 19.5Z" fill="#5E66FA"/>
<path d="M20.5 19.5C20.5 20.3284 19.8284 21 19 21C18.1716 21 17.5 20.3284 17.5 19.5C17.5 18.6716 18.1716 18 19 18C19.8284 18 20.5 18.6716 20.5 19.5Z" fill="#5E66FA"/>
</svg>
